<?xml version="1.0" encoding="UTF-8"?>
<!DOCTYPE svg PUBLIC "-//W3C//DTD SVG 1.1//EN" "http://www.w3.org/Graphics/SVG/1.1/DTD/svg11.dtd">
<svg xmlns="http://www.w3.org/2000/svg" version="1.1" width="260px" height="194px" style="shape-rendering:geometricPrecision; text-rendering:geometricPrecision; image-rendering:optimizeQuality; fill-rule:evenodd; clip-rule:evenodd" xmlns:xlink="http://www.w3.org/1999/xlink">
<g><path style="opacity:1" fill="#fefefe" d="M -0.5,-0.5 C 86.1667,-0.5 172.833,-0.5 259.5,-0.5C 259.5,64.1667 259.5,128.833 259.5,193.5C 172.833,193.5 86.1667,193.5 -0.5,193.5C -0.5,128.833 -0.5,64.1667 -0.5,-0.5 Z"/></g>
<g><path style="opacity:1" fill="#55b7e1" d="M 117.5,52.5 C 117.897,51.475 118.563,51.3083 119.5,52C 124.752,56.1556 125.585,60.989 122,66.5C 122.456,63.5716 122.456,60.5716 122,57.5C 121.004,55.3395 119.504,53.6728 117.5,52.5 Z"/></g>
<g><path style="opacity:1" fill="#6fc0d6" d="M 110.5,57.5 C 111.566,56.3079 112.399,56.6412 113,58.5C 113.667,60.5 113.667,62.5 113,64.5C 112.844,61.8091 112.011,59.4758 110.5,57.5 Z"/></g>
<g><path style="opacity:1" fill="#a4d6e7" d="M 114.5,55.5 C 116.267,54.35 117.433,55.0167 118,57.5C 118.874,60.3787 118.54,63.0454 117,65.5C 116.667,62.5 116.333,59.5 116,56.5C 115.617,55.944 115.117,55.6107 114.5,55.5 Z"/></g>
<g><path style="opacity:1" fill="#9bd2eb" d="M 108.5,73.5 C 107.698,72.0484 107.198,70.3817 107,68.5C 106.722,69.4158 106.222,70.0825 105.5,70.5C 105.448,66.8019 105.114,63.1352 104.5,59.5C 109.806,59.5738 110.806,61.7405 107.5,66C 108.322,68.4339 108.656,70.9339 108.5,73.5 Z"/></g>
<g><path style="opacity:1" fill="#effafa" d="M 105.5,60.5 C 107.337,60.6395 107.67,61.3061 106.5,62.5C 105.702,62.0431 105.369,61.3764 105.5,60.5 Z"/></g>
<g><path style="opacity:1" fill="#b7e1ee" d="M 132.5,84.5 C 171.67,84.1681 210.67,84.5015 249.5,85.5C 248.833,85.5 248.5,85.8333 248.5,86.5C 227.5,86.5 206.5,86.5 185.5,86.5C 185.5,99.5 185.5,112.5 185.5,125.5C 185.167,125.5 184.833,125.5 184.5,125.5C 184.5,112.167 184.5,98.8333 184.5,85.5C 166.992,85.83 149.659,85.4967 132.5,84.5 Z"/></g>
<g><path style="opacity:1" fill="#26b0e5" d="M 81.5,84.5 C 60.6178,86.1721 39.4511,87.1721 18,87.5C 17.5357,86.9056 17.369,86.2389 17.5,85.5C 38.9088,85.8215 60.2421,85.4882 81.5,84.5 Z"/></g>
<g><path style="opacity:1" fill="#f9fcfc" d="M 248.5,86.5 C 248.5,99.5 248.5,112.5 248.5,125.5C 227.5,125.5 206.5,125.5 185.5,125.5C 185.5,112.5 185.5,99.5 185.5,86.5C 206.5,86.5 227.5,86.5 248.5,86.5 Z"/></g>
<g><path style="opacity:1" fill="#9ed8ed" d="M 201.5,94.5 C 202.211,96.2014 203.545,97.2014 205.5,97.5C 205.125,99.6976 204.458,101.698 203.5,103.5C 203.5,102.833 203.5,102.167 203.5,101.5C 203.5,100.167 203.5,98.8333 203.5,97.5C 202.5,97.5 201.5,97.5 200.5,97.5C 200.263,96.209 200.596,95.209 201.5,94.5 Z"/></g>
<g><path style="opacity:1" fill="#25aceb" d="M 201.5,94.5 C 200.596,95.209 200.263,96.209 200.5,97.5C 201.5,97.5 202.5,97.5 203.5,97.5C 203.5,98.8333 203.5,100.167 203.5,101.5C 201.958,102.301 200.292,102.634 198.5,102.5C 197.575,106.79 196.909,111.124 196.5,115.5C 193.833,115.5 191.167,115.5 188.5,115.5C 189.026,111.064 190.026,106.731 191.5,102.5C 189.896,100.821 189.229,98.8211 189.5,96.5C 190.552,96.6495 191.552,96.4828 192.5,96C 193.104,93.5325 194.438,91.5325 196.5,90C 199.817,89.5017 203.15,89.335 206.5,89.5C 206.5,91.1667 206.5,92.8333 206.5,94.5C 204.833,94.5 203.167,94.5 201.5,94.5 Z"/></g>
<g><path style="opacity:1" fill="#80c8e3" d="M 205.5,97.5 C 208.33,96.0629 210.997,96.3963 213.5,98.5C 213.44,99.0431 213.107,99.3764 212.5,99.5C 210.477,97.8267 208.144,97.1601 205.5,97.5 Z"/></g>
<g><path style="opacity:1" fill="#20abeb" d="M 209.5,112.5 C 206.997,114.604 204.33,114.937 201.5,113.5C 201.851,110.097 202.518,106.763 203.5,103.5C 204.458,101.698 205.125,99.6976 205.5,97.5C 208.144,97.1601 210.477,97.8267 212.5,99.5C 213.107,99.3764 213.44,99.0431 213.5,98.5C 217.488,95.685 221.321,96.0183 225,99.5C 228.301,96.4051 232.134,95.7384 236.5,97.5C 237.611,98.6113 238.278,99.9446 238.5,101.5C 237.489,105.877 236.322,110.21 235,114.5C 232.619,115.435 230.119,115.768 227.5,115.5C 228.376,110.868 229.043,106.201 229.5,101.5C 227.61,101.297 226.11,101.963 225,103.5C 223.21,107.327 222.044,111.327 221.5,115.5C 219.167,115.5 216.833,115.5 214.5,115.5C 215.167,110.833 215.833,106.167 216.5,101.5C 214.61,101.297 213.11,101.963 212,103.5C 210.092,106.206 209.259,109.206 209.5,112.5 Z"/></g>
<g><path style="opacity:1" fill="#18abec" d="M 132.5,84.5 C 149.659,85.4967 166.992,85.83 184.5,85.5C 184.5,98.8333 184.5,112.167 184.5,125.5C 128.336,126.499 72.0025,126.832 15.5,126.5C 14.8514,112.459 15.5181,98.7924 17.5,85.5C 17.369,86.2389 17.5357,86.9056 18,87.5C 39.4511,87.1721 60.6178,86.1721 81.5,84.5C 87.12,79.2162 92.7867,73.8829 98.5,68.5C 98.8333,68.6667 99.1667,68.8333 99.5,69C 94.709,74.1041 90.0423,79.2708 85.5,84.5C 91.4078,85.4994 98.0745,85.8327 105.5,85.5C 105.5,82.5 105.5,79.5 105.5,76.5C 105.5,74.5 105.5,72.5 105.5,70.5C 106.222,70.0825 106.722,69.4158 107,68.5C 107.198,70.3817 107.698,72.0484 108.5,73.5C 108.911,77.2215 109.578,80.8881 110.5,84.5C 115.68,85.8147 121.014,85.8147 126.5,84.5C 126.376,83.8933 126.043,83.56 125.5,83.5C 120.908,78.0095 116.074,72.6762 111,67.5C 110.333,66.8333 110.333,66.1667 111,65.5C 118.038,72.0416 125.205,78.3749 132.5,84.5 Z"/></g>
<g><path style="opacity:1" fill="#f5fbfb" d="M 135.5,112.5 C 134.566,113.568 134.232,114.901 134.5,116.5C 132.143,116.663 129.81,116.497 127.5,116C 128.554,113.618 129.221,111.118 129.5,108.5C 129.704,105.482 130.037,102.482 130.5,99.5C 132.833,99.5 135.167,99.5 137.5,99.5C 136.993,103.86 136.327,108.193 135.5,112.5 Z"/></g>
<g><path style="opacity:1" fill="#f3fafa" d="M 44.5,98.5 C 45.9187,99.4511 47.5853,99.7845 49.5,99.5C 49.7947,103.228 50.4614,106.895 51.5,110.5C 52.1067,110.376 52.44,110.043 52.5,109.5C 53.6745,105.817 55.3412,102.484 57.5,99.5C 62.3222,98.9347 66.8222,99.6013 71,101.5C 71.7172,100.956 72.2172,100.289 72.5,99.5C 74.0418,98.6993 75.7085,98.366 77.5,98.5C 77.3505,99.552 77.5172,100.552 78,101.5C 83.2309,97.8307 88.7309,97.4974 94.5,100.5C 95.0614,101.908 95.3948,103.408 95.5,105C 94.7501,108.83 94.0834,112.663 93.5,116.5C 91.5,116.5 89.5,116.5 87.5,116.5C 87.44,115.957 87.1067,115.624 86.5,115.5C 80.8473,119.077 76.8473,117.911 74.5,112C 74.6431,109.849 75.6431,108.182 77.5,107C 81.1516,106.501 84.8183,106.335 88.5,106.5C 88.5,105.167 88.5,103.833 88.5,102.5C 82.8835,104.314 77.2168,105.148 71.5,105C 69.4703,108.589 68.137,112.422 67.5,116.5C 65.5,116.5 63.5,116.5 61.5,116.5C 62.3355,111.496 62.8355,106.496 63,101.5C 58.9589,108.417 54.7922,115.25 50.5,122C 47.3117,123.316 43.9783,123.816 40.5,123.5C 40.5,121.833 40.5,120.167 40.5,118.5C 42.4672,118.739 44.3005,118.406 46,117.5C 46.3969,112.315 45.5636,107.315 43.5,102.5C 42.3067,104.527 40.64,106.027 38.5,107C 35.1832,107.498 31.8499,107.665 28.5,107.5C 27.8413,110.455 27.5079,113.455 27.5,116.5C 24.8333,116.5 22.1667,116.5 19.5,116.5C 21.3814,108.545 23.0481,100.545 24.5,92.5C 29.8437,92.334 35.1771,92.5006 40.5,93C 42.4641,94.451 43.7974,96.2843 44.5,98.5 Z"/></g>
<g><path style="opacity:1" fill="#6cc1ea" d="M 44.5,98.5 C 47.6646,97.9635 50.3312,98.7969 52.5,101C 51.1834,103.937 51.1834,106.77 52.5,109.5C 52.44,110.043 52.1067,110.376 51.5,110.5C 50.4614,106.895 49.7947,103.228 49.5,99.5C 47.5853,99.7845 45.9187,99.4511 44.5,98.5 Z"/></g>
<g><path style="opacity:1" fill="#eff9fa" d="M 165.5,98.5 C 174.41,97.0963 179.076,100.763 179.5,109.5C 174.456,109.173 169.456,109.506 164.5,110.5C 166.729,114.055 169.396,114.388 172.5,111.5C 178.592,112.391 178.592,114.224 172.5,117C 162.343,119.5 157.843,115.666 159,105.5C 160.694,102.642 162.861,100.309 165.5,98.5 Z"/></g>
<g><path style="opacity:1" fill="#34aee7" d="M 168.5,102.5 C 171.5,102.167 172.833,103.5 172.5,106.5C 170.396,106.799 168.396,106.466 166.5,105.5C 167.193,104.482 167.859,103.482 168.5,102.5 Z"/></g>
<g><path style="opacity:1" fill="#f0f9fa" d="M 153.5,92.5 C 155.833,92.5 158.167,92.5 160.5,92.5C 158.833,100.5 157.167,108.5 155.5,116.5C 153.08,116.708 150.747,116.374 148.5,115.5C 141.836,119.001 138.17,117.001 137.5,109.5C 138.039,106.752 138.872,104.085 140,101.5C 143.397,98.0193 147.064,97.686 151,100.5C 152.144,97.9196 152.978,95.2529 153.5,92.5 Z"/></g>
<g><path style="opacity:1" fill="#f1f9fa" d="M 127.5,110.5 C 126.262,112.214 125.595,114.214 125.5,116.5C 123.5,116.5 121.5,116.5 119.5,116.5C 119.5,114.833 119.5,113.167 119.5,111.5C 120.092,108.873 120.425,106.206 120.5,103.5C 118.408,103.561 116.908,104.561 116,106.5C 115.103,109.49 114.269,112.49 113.5,115.5C 111.604,116.466 109.604,116.799 107.5,116.5C 107.936,112.089 107.936,107.756 107.5,103.5C 103.897,106.188 102.23,109.855 102.5,114.5C 100.544,116.148 98.2108,116.815 95.5,116.5C 95.5291,112.36 96.1958,108.36 97.5,104.5C 97.366,102.708 97.6993,101.042 98.5,99.5C 101.144,99.1601 103.477,99.8267 105.5,101.5C 106.107,101.376 106.44,101.043 106.5,100.5C 110.036,97.6656 113.369,97.999 116.5,101.5C 126.566,96.2197 130.233,99.2197 127.5,110.5 Z"/></g>
<g><path style="opacity:1" fill="#73cae7" d="M 98.5,99.5 C 101.33,98.0629 103.997,98.3963 106.5,100.5C 106.44,101.043 106.107,101.376 105.5,101.5C 103.477,99.8267 101.144,99.1601 98.5,99.5 Z"/></g>
<g><path style="opacity:1" fill="#62c4e6" d="M 57.5,99.5 C 62.4001,98.2001 67.4001,98.2001 72.5,99.5C 72.2172,100.289 71.7172,100.956 71,101.5C 66.8222,99.6013 62.3222,98.9347 57.5,99.5 Z"/></g>
<g><path style="opacity:1" fill="#39afea" d="M 30.5,97.5 C 32.5,97.5 34.5,97.5 36.5,97.5C 36.8333,101.833 34.8333,103.833 30.5,103.5C 30.5,101.5 30.5,99.5 30.5,97.5 Z"/></g>
<g><path style="opacity:1" fill="#98d4ed" d="M 132.5,95.5 C 134.265,96.4614 136.265,96.7947 138.5,96.5C 136.307,97.7969 133.973,97.7969 131.5,96.5C 131.624,95.8933 131.957,95.56 132.5,95.5 Z"/></g>
<g><path style="opacity:1" fill="#ebf7f8" d="M 138.5,96.5 C 136.265,96.7947 134.265,96.4614 132.5,95.5C 132.5,94.5 132.5,93.5 132.5,92.5C 134.833,92.5 137.167,92.5 139.5,92.5C 139.768,94.099 139.434,95.4324 138.5,96.5 Z"/></g>
<g><path style="opacity:1" fill="#bbe4f3" d="M 125.5,83.5 C 126.043,83.56 126.376,83.8933 126.5,84.5C 121.014,85.8147 115.68,85.8147 110.5,84.5C 115.695,84.8205 120.695,84.4872 125.5,83.5 Z"/></g>
<g><path style="opacity:1" fill="#b7e1f1" d="M 105.5,76.5 C 105.5,79.5 105.5,82.5 105.5,85.5C 98.0745,85.8327 91.4078,85.4994 85.5,84.5C 91.8333,84.5 98.1667,84.5 104.5,84.5C 104.194,81.6146 104.527,78.9479 105.5,76.5 Z"/></g>
<g><path style="opacity:1" fill="#2aabe7" d="M 146.5,103.5 C 147.822,103.33 148.989,103.663 150,104.5C 151.822,109.829 149.989,112.496 144.5,112.5C 144.065,109.162 144.732,106.162 146.5,103.5 Z"/></g>
<g><path style="opacity:1" fill="#24a9e7" d="M 82.5,109.5 C 88.418,109.352 88.918,110.686 84,113.5C 81.5003,112.842 81.0003,111.509 82.5,109.5 Z"/></g>
<g><path style="opacity:1" fill="#7acbe8" d="M 209.5,112.5 C 209.5,113.5 209.5,114.5 209.5,115.5C 206.428,115.817 203.428,115.484 200.5,114.5C 200.624,113.893 200.957,113.56 201.5,113.5C 204.33,114.937 206.997,114.604 209.5,112.5 Z"/></g>
<g><path style="opacity:1" fill="#51bae6" d="M 97.5,104.5 C 96.1958,108.36 95.5291,112.36 95.5,116.5C 98.2108,116.815 100.544,116.148 102.5,114.5C 102.657,115.873 102.49,117.207 102,118.5C 97.0664,117.856 92.233,117.19 87.5,116.5C 89.5,116.5 91.5,116.5 93.5,116.5C 94.0834,112.663 94.7501,108.83 95.5,105C 95.3948,103.408 95.0614,101.908 94.5,100.5C 95.1174,100.389 95.6174,100.056 96,99.5C 96.1981,101.382 96.6981,103.048 97.5,104.5 Z"/></g>
<g><path style="opacity:1" fill="#51b7e6" d="M 129.5,108.5 C 129.221,111.118 128.554,113.618 127.5,116C 129.81,116.497 132.143,116.663 134.5,116.5C 134.232,114.901 134.566,113.568 135.5,112.5C 135.662,114.527 135.495,116.527 135,118.5C 129.593,117.527 124.093,117.193 118.5,117.5C 118.205,115.265 118.539,113.265 119.5,111.5C 119.5,113.167 119.5,114.833 119.5,116.5C 121.5,116.5 123.5,116.5 125.5,116.5C 125.595,114.214 126.262,112.214 127.5,110.5C 128.167,109.833 128.833,109.167 129.5,108.5 Z"/></g>
<g><path style="opacity:1" fill="#c1c1c4" d="M 218.5,118.5 C 220.035,117.212 221.701,117.212 223.5,118.5C 223.137,119.183 222.804,119.85 222.5,120.5C 221.141,121.007 220.141,122.007 219.5,123.5C 218.583,122.873 217.583,122.539 216.5,122.5C 217.209,121.596 218.209,121.263 219.5,121.5C 219.737,120.209 219.404,119.209 218.5,118.5 Z"/></g>
<g><path style="opacity:1" fill="#88898d" d="M 218.5,118.5 C 219.404,119.209 219.737,120.209 219.5,121.5C 218.209,121.263 217.209,121.596 216.5,122.5C 214.858,124.081 212.858,124.747 210.5,124.5C 210.201,122.396 210.534,120.396 211.5,118.5C 214.095,117.78 216.429,117.78 218.5,118.5 Z"/></g>
<g><path style="opacity:1" fill="#9e9ea2" d="M 227.5,117.5 C 229.604,117.201 231.604,117.534 233.5,118.5C 232.907,120.382 232.24,122.215 231.5,124C 229.741,124.798 228.074,124.631 226.5,123.5C 227.833,123.167 229.167,122.833 230.5,122.5C 229.675,121.614 228.675,121.281 227.5,121.5C 227.5,120.167 227.5,118.833 227.5,117.5 Z"/></g>
<g><path style="opacity:1" fill="#88898d" d="M 206.5,117.5 C 207.497,117.47 208.164,117.97 208.5,119C 208.062,120.92 207.395,122.754 206.5,124.5C 205.41,123.609 205.41,122.609 206.5,121.5C 203.929,120.095 203.929,118.762 206.5,117.5 Z"/></g>
<g><path style="opacity:1" fill="#ededee" d="M 212.5,119.5 C 215.041,120.623 215.041,121.956 212.5,123.5C 211.374,122.192 211.374,120.858 212.5,119.5 Z"/></g>
<g><path style="opacity:1" fill="#8d8c90" d="M 222.5,120.5 C 223.452,121.452 224.452,122.452 225.5,123.5C 225,123.833 224.5,124.167 224,124.5C 222.445,123.622 220.779,123.622 219,124.5C 217.624,124.316 216.791,123.649 216.5,122.5C 217.583,122.539 218.583,122.873 219.5,123.5C 220.141,122.007 221.141,121.007 222.5,120.5 Z"/></g>
<g><path style="opacity:1" fill="#9edceb" d="M 249.5,85.5 C 249.5,99.5 249.5,113.5 249.5,127.5C 171.332,127.833 93.3316,127.499 15.5,126.5C 72.0025,126.832 128.336,126.499 184.5,125.5C 184.833,125.5 185.167,125.5 185.5,125.5C 206.5,125.5 227.5,125.5 248.5,125.5C 248.5,112.5 248.5,99.5 248.5,86.5C 248.5,85.8333 248.833,85.5 249.5,85.5 Z"/></g>
</svg>
